# xmcd
#
# Track frame offsets:
#	150
#	12407
#	25837
#	38303
#	49806
#	61222
#	74421
#	88219
#	100798
#	113198
#	128341
#	141686
#	154549
#	169328
#	182983
#	195249
#	207785
#	222404
#	235056
#	248153
#	259945
#	271564
#
# Disc length: 3800 seconds
#
# Revision: 0
# Processed by: cddbd v1.5.1PL0 Copyright (c) Steve Scherf et al.
# Submitted via: audiograbber 1.83.01
#
DISCID=310ed616
DTITLE=Louis Jordan - Jumpin' and Jivin'   disc 2
DYEAR=2005
DGENRE=Swing
TTITLE0=Reet, Petitie and Gone
TTITLE1=Sure Had a Wonderful Time
TTITLE2=Barnyard Boogie
TTITLE3=Doug The Jitterbug
TTITLE4=At The Swing Cats Ball
TTITLE5=Pinetop's Boogie Woogie
TTITLE6=Have You Got The Gumption?
TTITLE7=Oh Boy, I'm In The Groove
TTITLE8=Sam Jones Done Snagged His Britches On
TTITLE9=Early In The Morning
TTITLE10=Don't Let The Sun Catch You Cryin'
TTITLE11=I'm Gonna Move To The Outskirts Of Town
TTITLE12=Daddy-O
TTITLE13=You're On The Right Track, Baby
TTITLE14=Baby It's Cold Outside
TTITLE15=My Baby Said Yes
TTITLE16=Somebody Done Changed The Lock On My Door
TTITLE17=We Can't Agree
TTITLE18=Roamin' Blues
TTITLE19=You Run Your Mouth And I'll Run My Business
TTITLE20=(You Died Your Hair) Chartreuse
TTITLE21=Teardrops From My Eyes
EXTD=
EXTT0=
EXTT1=
EXTT2=
EXTT3=
EXTT4=
EXTT5=
EXTT6=
EXTT7=
EXTT8=
EXTT9=
EXTT10=
EXTT11=
EXTT12=
EXTT13=
EXTT14=
EXTT15=
EXTT16=
EXTT17=
EXTT18=
EXTT19=
EXTT20=
EXTT21=
PLAYORDER=
